<svg width="14" height="22" viewBox="0 0 14 22" fill="none" xmlns="http://www.w3.org/2000/svg">
<path d="M11.2835 0.282708H11.2831L2.11083 0.282707L2.11042 0.282709C1.58248 0.285389 1.07729 0.501081 0.704538 0.882303C0.331846 1.26346 0.121625 1.77929 0.119013 2.31756H0.119012V2.31796L0.119011 19.5159L0.119013 19.5163C0.121625 20.0545 0.331846 20.5704 0.704538 20.9515C1.07729 21.3327 1.58248 21.5484 2.11042 21.5511H2.11083H11.2831L11.2835 21.5511C11.8114 21.5484 12.3166 21.3327 12.6893 20.9515C13.062 20.5704 13.2723 20.0545 13.2749 19.5163V19.5159L13.2749 2.31796L13.2749 2.31756C13.2723 1.77929 13.062 1.26346 12.6893 0.882303C12.3166 0.501081 11.8114 0.285389 11.2835 0.282708ZM1.04524 4.3532H12.3486V17.4806H1.04524V4.3532ZM2.11083 1.22631H11.2831C11.5651 1.22631 11.8359 1.34087 12.0359 1.5454C12.2359 1.74999 12.3486 2.02785 12.3486 2.31796V3.4096H1.04524V2.31796C1.04524 2.02785 1.15794 1.74999 1.35799 1.5454C1.55797 1.34087 1.82881 1.22631 2.11083 1.22631ZM11.2831 20.6075H2.11083C1.82881 20.6075 1.55797 20.493 1.35799 20.2884C1.15794 20.0838 1.04524 19.806 1.04524 19.5159V18.4242H12.3486V19.5159C12.3486 19.806 12.2359 20.0838 12.0359 20.2884C11.8359 20.493 11.5651 20.6075 11.2831 20.6075Z" fill="white" stroke="white" stroke-width="0.161879"/>
</svg>
