<svg width="21" height="20" viewBox="0 0 21 20" fill="none" xmlns="http://www.w3.org/2000/svg">
<mask id="path-1-outside-1_285_577" maskUnits="userSpaceOnUse" x="-0.200073" y="-0.181824" width="21" height="20" fill="black">
<rect fill="white" x="-0.200073" y="-0.181824" width="21" height="20"/>
<path d="M9.29223 14.7904C9.29223 14.8905 9.25333 14.9866 9.18409 15.0574C9.11484 15.1282 9.02093 15.168 8.923 15.168H7.81531V18.5666C7.81531 18.6668 7.77641 18.7628 7.70717 18.8336C7.63792 18.9044 7.54401 18.9442 7.44608 18.9442C7.34815 18.9442 7.25424 18.9044 7.18499 18.8336C7.11575 18.7628 7.07685 18.6668 7.07685 18.5666V15.168H5.96916C5.87123 15.168 5.77732 15.1282 5.70807 15.0574C5.63883 14.9866 5.59993 14.8905 5.59993 14.7904C5.59993 14.6902 5.63883 14.5942 5.70807 14.5234C5.77732 14.4525 5.87123 14.4128 5.96916 14.4128H8.923C9.02093 14.4128 9.11484 14.4525 9.18409 14.5234C9.25333 14.5942 9.29223 14.6902 9.29223 14.7904ZM3.75377 14.4128C3.65585 14.4128 3.56193 14.4525 3.49269 14.5234C3.42344 14.5942 3.38454 14.6902 3.38454 14.7904V16.3009H1.53839V14.7904C1.53839 14.6902 1.49949 14.5942 1.43024 14.5234C1.361 14.4525 1.26708 14.4128 1.16916 14.4128C1.07123 14.4128 0.977316 14.4525 0.908072 14.5234C0.838828 14.5942 0.799927 14.6902 0.799927 14.7904V18.5666C0.799927 18.6668 0.838828 18.7628 0.908072 18.8336C0.977316 18.9044 1.07123 18.9442 1.16916 18.9442C1.26708 18.9442 1.361 18.9044 1.43024 18.8336C1.49949 18.7628 1.53839 18.6668 1.53839 18.5666V17.0561H3.38454V18.5666C3.38454 18.6668 3.42344 18.7628 3.49269 18.8336C3.56193 18.9044 3.65585 18.9442 3.75377 18.9442C3.8517 18.9442 3.94561 18.9044 4.01486 18.8336C4.0841 18.7628 4.123 18.6668 4.123 18.5666V14.7904C4.123 14.6902 4.0841 14.5942 4.01486 14.5234C3.94561 14.4525 3.8517 14.4128 3.75377 14.4128ZM19.6307 18.189H17.7845V14.7904C17.7845 14.6902 17.7456 14.5942 17.6764 14.5234C17.6072 14.4525 17.5132 14.4128 17.4153 14.4128C17.3174 14.4128 17.2235 14.4525 17.1542 14.5234C17.085 14.5942 17.0461 14.6902 17.0461 14.7904V18.5666C17.0461 18.6668 17.085 18.7628 17.1542 18.8336C17.2235 18.9044 17.3174 18.9442 17.4153 18.9442H19.6307C19.7286 18.9442 19.8225 18.9044 19.8918 18.8336C19.961 18.7628 19.9999 18.6668 19.9999 18.5666C19.9999 18.4664 19.961 18.3704 19.8918 18.2996C19.8225 18.2288 19.7286 18.189 19.6307 18.189ZM14.9415 14.4316C14.8663 14.4097 14.7865 14.4115 14.7124 14.4367C14.6382 14.462 14.5733 14.5096 14.5261 14.5732L12.9845 16.7823L11.443 14.5732C11.3958 14.5096 11.3309 14.462 11.2567 14.4367C11.1826 14.4115 11.1027 14.4097 11.0276 14.4316C10.9529 14.4557 10.8876 14.5034 10.8411 14.5679C10.7947 14.6323 10.7695 14.7103 10.7692 14.7904V18.5666C10.7692 18.6668 10.8081 18.7628 10.8773 18.8336C10.9465 18.9044 11.0405 18.9442 11.1384 18.9442C11.2363 18.9442 11.3302 18.9044 11.3995 18.8336C11.4687 18.7628 11.5076 18.6668 11.5076 18.5666V15.9704L12.6799 17.6509C12.7151 17.6997 12.761 17.7393 12.8139 17.7667C12.8668 17.794 12.9253 17.8082 12.9845 17.8082C13.0438 17.8082 13.1023 17.794 13.1552 17.7667C13.2081 17.7393 13.254 17.6997 13.2892 17.6509L14.4615 15.9704V18.5666C14.4615 18.6668 14.5004 18.7628 14.5696 18.8336C14.6389 18.9044 14.7328 18.9442 14.8307 18.9442C14.9286 18.9442 15.0225 18.9044 15.0918 18.8336C15.161 18.7628 15.1999 18.6668 15.1999 18.5666V14.7904C15.1996 14.7103 15.1744 14.6323 15.1279 14.5679C15.0815 14.5034 15.0162 14.4557 14.9415 14.4316ZM17.0461 11.3918C16.9482 11.3918 16.8542 11.352 16.785 11.2812C16.7157 11.2104 16.6768 11.1143 16.6768 11.0142V6.86031H11.8768C11.7789 6.86031 11.685 6.82052 11.6158 6.7497C11.5465 6.67889 11.5076 6.58284 11.5076 6.48269V1.57359H3.01531C2.91739 1.57359 2.82347 1.61338 2.75423 1.6842C2.68498 1.75502 2.64608 1.85107 2.64608 1.95122V11.0142C2.64608 11.1143 2.60718 11.2104 2.53794 11.2812C2.46869 11.352 2.37478 11.3918 2.27685 11.3918C2.17892 11.3918 2.08501 11.352 2.01576 11.2812C1.94652 11.2104 1.90762 11.1143 1.90762 11.0142V1.95122C1.90762 1.65076 2.02432 1.36261 2.23205 1.15016C2.43979 0.937705 2.72153 0.81835 3.01531 0.81835H11.8768C11.9254 0.816762 11.9737 0.826082 12.0184 0.845656C12.063 0.865229 12.1029 0.894578 12.1353 0.931637L17.3045 6.20891C17.3724 6.28362 17.4117 6.38079 17.4153 6.48269V11.0142C17.4153 11.1143 17.3764 11.2104 17.3072 11.2812C17.2379 11.352 17.144 11.3918 17.0461 11.3918ZM12.2461 6.10506H16.1507L12.2461 2.11171V6.10506Z"/>
</mask>
<path d="M9.29223 14.7904C9.29223 14.8905 9.25333 14.9866 9.18409 15.0574C9.11484 15.1282 9.02093 15.168 8.923 15.168H7.81531V18.5666C7.81531 18.6668 7.77641 18.7628 7.70717 18.8336C7.63792 18.9044 7.54401 18.9442 7.44608 18.9442C7.34815 18.9442 7.25424 18.9044 7.18499 18.8336C7.11575 18.7628 7.07685 18.6668 7.07685 18.5666V15.168H5.96916C5.87123 15.168 5.77732 15.1282 5.70807 15.0574C5.63883 14.9866 5.59993 14.8905 5.59993 14.7904C5.59993 14.6902 5.63883 14.5942 5.70807 14.5234C5.77732 14.4525 5.87123 14.4128 5.96916 14.4128H8.923C9.02093 14.4128 9.11484 14.4525 9.18409 14.5234C9.25333 14.5942 9.29223 14.6902 9.29223 14.7904ZM3.75377 14.4128C3.65585 14.4128 3.56193 14.4525 3.49269 14.5234C3.42344 14.5942 3.38454 14.6902 3.38454 14.7904V16.3009H1.53839V14.7904C1.53839 14.6902 1.49949 14.5942 1.43024 14.5234C1.361 14.4525 1.26708 14.4128 1.16916 14.4128C1.07123 14.4128 0.977316 14.4525 0.908072 14.5234C0.838828 14.5942 0.799927 14.6902 0.799927 14.7904V18.5666C0.799927 18.6668 0.838828 18.7628 0.908072 18.8336C0.977316 18.9044 1.07123 18.9442 1.16916 18.9442C1.26708 18.9442 1.361 18.9044 1.43024 18.8336C1.49949 18.7628 1.53839 18.6668 1.53839 18.5666V17.0561H3.38454V18.5666C3.38454 18.6668 3.42344 18.7628 3.49269 18.8336C3.56193 18.9044 3.65585 18.9442 3.75377 18.9442C3.8517 18.9442 3.94561 18.9044 4.01486 18.8336C4.0841 18.7628 4.123 18.6668 4.123 18.5666V14.7904C4.123 14.6902 4.0841 14.5942 4.01486 14.5234C3.94561 14.4525 3.8517 14.4128 3.75377 14.4128ZM19.6307 18.189H17.7845V14.7904C17.7845 14.6902 17.7456 14.5942 17.6764 14.5234C17.6072 14.4525 17.5132 14.4128 17.4153 14.4128C17.3174 14.4128 17.2235 14.4525 17.1542 14.5234C17.085 14.5942 17.0461 14.6902 17.0461 14.7904V18.5666C17.0461 18.6668 17.085 18.7628 17.1542 18.8336C17.2235 18.9044 17.3174 18.9442 17.4153 18.9442H19.6307C19.7286 18.9442 19.8225 18.9044 19.8918 18.8336C19.961 18.7628 19.9999 18.6668 19.9999 18.5666C19.9999 18.4664 19.961 18.3704 19.8918 18.2996C19.8225 18.2288 19.7286 18.189 19.6307 18.189ZM14.9415 14.4316C14.8663 14.4097 14.7865 14.4115 14.7124 14.4367C14.6382 14.462 14.5733 14.5096 14.5261 14.5732L12.9845 16.7823L11.443 14.5732C11.3958 14.5096 11.3309 14.462 11.2567 14.4367C11.1826 14.4115 11.1027 14.4097 11.0276 14.4316C10.9529 14.4557 10.8876 14.5034 10.8411 14.5679C10.7947 14.6323 10.7695 14.7103 10.7692 14.7904V18.5666C10.7692 18.6668 10.8081 18.7628 10.8773 18.8336C10.9465 18.9044 11.0405 18.9442 11.1384 18.9442C11.2363 18.9442 11.3302 18.9044 11.3995 18.8336C11.4687 18.7628 11.5076 18.6668 11.5076 18.5666V15.9704L12.6799 17.6509C12.7151 17.6997 12.761 17.7393 12.8139 17.7667C12.8668 17.794 12.9253 17.8082 12.9845 17.8082C13.0438 17.8082 13.1023 17.794 13.1552 17.7667C13.2081 17.7393 13.254 17.6997 13.2892 17.6509L14.4615 15.9704V18.5666C14.4615 18.6668 14.5004 18.7628 14.5696 18.8336C14.6389 18.9044 14.7328 18.9442 14.8307 18.9442C14.9286 18.9442 15.0225 18.9044 15.0918 18.8336C15.161 18.7628 15.1999 18.6668 15.1999 18.5666V14.7904C15.1996 14.7103 15.1744 14.6323 15.1279 14.5679C15.0815 14.5034 15.0162 14.4557 14.9415 14.4316ZM17.0461 11.3918C16.9482 11.3918 16.8542 11.352 16.785 11.2812C16.7157 11.2104 16.6768 11.1143 16.6768 11.0142V6.86031H11.8768C11.7789 6.86031 11.685 6.82052 11.6158 6.7497C11.5465 6.67889 11.5076 6.58284 11.5076 6.48269V1.57359H3.01531C2.91739 1.57359 2.82347 1.61338 2.75423 1.6842C2.68498 1.75502 2.64608 1.85107 2.64608 1.95122V11.0142C2.64608 11.1143 2.60718 11.2104 2.53794 11.2812C2.46869 11.352 2.37478 11.3918 2.27685 11.3918C2.17892 11.3918 2.08501 11.352 2.01576 11.2812C1.94652 11.2104 1.90762 11.1143 1.90762 11.0142V1.95122C1.90762 1.65076 2.02432 1.36261 2.23205 1.15016C2.43979 0.937705 2.72153 0.81835 3.01531 0.81835H11.8768C11.9254 0.816762 11.9737 0.826082 12.0184 0.845656C12.063 0.865229 12.1029 0.894578 12.1353 0.931637L17.3045 6.20891C17.3724 6.28362 17.4117 6.38079 17.4153 6.48269V11.0142C17.4153 11.1143 17.3764 11.2104 17.3072 11.2812C17.2379 11.352 17.144 11.3918 17.0461 11.3918ZM12.2461 6.10506H16.1507L12.2461 2.11171V6.10506Z" fill="white"/>
<path d="M9.29223 14.7904C9.29223 14.8905 9.25333 14.9866 9.18409 15.0574C9.11484 15.1282 9.02093 15.168 8.923 15.168H7.81531V18.5666C7.81531 18.6668 7.77641 18.7628 7.70717 18.8336C7.63792 18.9044 7.54401 18.9442 7.44608 18.9442C7.34815 18.9442 7.25424 18.9044 7.18499 18.8336C7.11575 18.7628 7.07685 18.6668 7.07685 18.5666V15.168H5.96916C5.87123 15.168 5.77732 15.1282 5.70807 15.0574C5.63883 14.9866 5.59993 14.8905 5.59993 14.7904C5.59993 14.6902 5.63883 14.5942 5.70807 14.5234C5.77732 14.4525 5.87123 14.4128 5.96916 14.4128H8.923C9.02093 14.4128 9.11484 14.4525 9.18409 14.5234C9.25333 14.5942 9.29223 14.6902 9.29223 14.7904ZM3.75377 14.4128C3.65585 14.4128 3.56193 14.4525 3.49269 14.5234C3.42344 14.5942 3.38454 14.6902 3.38454 14.7904V16.3009H1.53839V14.7904C1.53839 14.6902 1.49949 14.5942 1.43024 14.5234C1.361 14.4525 1.26708 14.4128 1.16916 14.4128C1.07123 14.4128 0.977316 14.4525 0.908072 14.5234C0.838828 14.5942 0.799927 14.6902 0.799927 14.7904V18.5666C0.799927 18.6668 0.838828 18.7628 0.908072 18.8336C0.977316 18.9044 1.07123 18.9442 1.16916 18.9442C1.26708 18.9442 1.361 18.9044 1.43024 18.8336C1.49949 18.7628 1.53839 18.6668 1.53839 18.5666V17.0561H3.38454V18.5666C3.38454 18.6668 3.42344 18.7628 3.49269 18.8336C3.56193 18.9044 3.65585 18.9442 3.75377 18.9442C3.8517 18.9442 3.94561 18.9044 4.01486 18.8336C4.0841 18.7628 4.123 18.6668 4.123 18.5666V14.7904C4.123 14.6902 4.0841 14.5942 4.01486 14.5234C3.94561 14.4525 3.8517 14.4128 3.75377 14.4128ZM19.6307 18.189H17.7845V14.7904C17.7845 14.6902 17.7456 14.5942 17.6764 14.5234C17.6072 14.4525 17.5132 14.4128 17.4153 14.4128C17.3174 14.4128 17.2235 14.4525 17.1542 14.5234C17.085 14.5942 17.0461 14.6902 17.0461 14.7904V18.5666C17.0461 18.6668 17.085 18.7628 17.1542 18.8336C17.2235 18.9044 17.3174 18.9442 17.4153 18.9442H19.6307C19.7286 18.9442 19.8225 18.9044 19.8918 18.8336C19.961 18.7628 19.9999 18.6668 19.9999 18.5666C19.9999 18.4664 19.961 18.3704 19.8918 18.2996C19.8225 18.2288 19.7286 18.189 19.6307 18.189ZM14.9415 14.4316C14.8663 14.4097 14.7865 14.4115 14.7124 14.4367C14.6382 14.462 14.5733 14.5096 14.5261 14.5732L12.9845 16.7823L11.443 14.5732C11.3958 14.5096 11.3309 14.462 11.2567 14.4367C11.1826 14.4115 11.1027 14.4097 11.0276 14.4316C10.9529 14.4557 10.8876 14.5034 10.8411 14.5679C10.7947 14.6323 10.7695 14.7103 10.7692 14.7904V18.5666C10.7692 18.6668 10.8081 18.7628 10.8773 18.8336C10.9465 18.9044 11.0405 18.9442 11.1384 18.9442C11.2363 18.9442 11.3302 18.9044 11.3995 18.8336C11.4687 18.7628 11.5076 18.6668 11.5076 18.5666V15.9704L12.6799 17.6509C12.7151 17.6997 12.761 17.7393 12.8139 17.7667C12.8668 17.794 12.9253 17.8082 12.9845 17.8082C13.0438 17.8082 13.1023 17.794 13.1552 17.7667C13.2081 17.7393 13.254 17.6997 13.2892 17.6509L14.4615 15.9704V18.5666C14.4615 18.6668 14.5004 18.7628 14.5696 18.8336C14.6389 18.9044 14.7328 18.9442 14.8307 18.9442C14.9286 18.9442 15.0225 18.9044 15.0918 18.8336C15.161 18.7628 15.1999 18.6668 15.1999 18.5666V14.7904C15.1996 14.7103 15.1744 14.6323 15.1279 14.5679C15.0815 14.5034 15.0162 14.4557 14.9415 14.4316ZM17.0461 11.3918C16.9482 11.3918 16.8542 11.352 16.785 11.2812C16.7157 11.2104 16.6768 11.1143 16.6768 11.0142V6.86031H11.8768C11.7789 6.86031 11.685 6.82052 11.6158 6.7497C11.5465 6.67889 11.5076 6.58284 11.5076 6.48269V1.57359H3.01531C2.91739 1.57359 2.82347 1.61338 2.75423 1.6842C2.68498 1.75502 2.64608 1.85107 2.64608 1.95122V11.0142C2.64608 11.1143 2.60718 11.2104 2.53794 11.2812C2.46869 11.352 2.37478 11.3918 2.27685 11.3918C2.17892 11.3918 2.08501 11.352 2.01576 11.2812C1.94652 11.2104 1.90762 11.1143 1.90762 11.0142V1.95122C1.90762 1.65076 2.02432 1.36261 2.23205 1.15016C2.43979 0.937705 2.72153 0.81835 3.01531 0.81835H11.8768C11.9254 0.816762 11.9737 0.826082 12.0184 0.845656C12.063 0.865229 12.1029 0.894578 12.1353 0.931637L17.3045 6.20891C17.3724 6.28362 17.4117 6.38079 17.4153 6.48269V11.0142C17.4153 11.1143 17.3764 11.2104 17.3072 11.2812C17.2379 11.352 17.144 11.3918 17.0461 11.3918ZM12.2461 6.10506H16.1507L12.2461 2.11171V6.10506Z" stroke="white" stroke-width="0.323758" mask="url(#path-1-outside-1_285_577)"/>
</svg>
