<svg width="19" height="20" viewBox="0 0 19 20" fill="none" xmlns="http://www.w3.org/2000/svg">
<path d="M4.3998 2.63637C4.3998 1.98538 4.65266 1.36106 5.10275 0.900743C5.55284 0.440427 6.16329 0.181824 6.7998 0.181824H12.303C12.7802 0.182253 13.2378 0.376488 13.575 0.721824L18.273 5.52537C18.6102 5.87048 18.7997 6.33838 18.7998 6.82628V17.3636C18.7998 18.0146 18.5469 18.6389 18.0969 19.0993C17.6468 19.5596 17.0363 19.8182 16.3998 19.8182H9.7998C10.0626 19.4623 10.2498 19.045 10.3398 18.5909H16.3998C16.7181 18.5909 17.0233 18.4616 17.2483 18.2315C17.4734 18.0013 17.5998 17.6891 17.5998 17.3636V7.54546H13.3998C12.9224 7.54546 12.4646 7.35151 12.127 7.00627C11.7894 6.66103 11.5998 6.19279 11.5998 5.70455V1.4091H6.7998C6.48154 1.4091 6.17632 1.5384 5.95128 1.76856C5.72623 1.99871 5.5998 2.31088 5.5998 2.63637V11.8409C5.5026 11.9158 5.4078 11.9968 5.3214 12.0839C5.10523 11.7347 4.7807 11.4698 4.3998 11.3316V2.63637ZM13.3998 6.31819H17.3514L12.7998 1.66314V5.70455C12.7998 5.8673 12.863 6.02338 12.9755 6.13846C13.0881 6.25354 13.2407 6.31819 13.3998 6.31819ZM3.7998 12.4545C3.64067 12.4545 3.48806 12.5192 3.37554 12.6343C3.26302 12.7494 3.1998 12.9054 3.1998 13.0682V17.9773C3.1998 18.14 3.13659 18.2961 3.02407 18.4112C2.91155 18.5263 2.75893 18.5909 2.5998 18.5909C2.44067 18.5909 2.28806 18.5263 2.17554 18.4112C2.06302 18.2961 1.9998 18.14 1.9998 17.9773V17.3636C1.9998 17.2009 1.93659 17.0448 1.82407 16.9297C1.71155 16.8147 1.55893 16.75 1.3998 16.75C1.24067 16.75 1.08806 16.8147 0.975541 16.9297C0.863019 17.0448 0.799805 17.2009 0.799805 17.3636V17.9773C0.799805 18.4655 0.989447 18.9338 1.32701 19.279C1.66458 19.6242 2.12242 19.8182 2.5998 19.8182C3.07719 19.8182 3.53503 19.6242 3.8726 19.279C4.21016 18.9338 4.3998 18.4655 4.3998 17.9773V13.0682C4.3998 12.9054 4.33659 12.7494 4.22407 12.6343C4.11155 12.5192 3.95893 12.4545 3.7998 12.4545ZM5.5998 14.2955C5.5998 13.8072 5.78945 13.339 6.12701 12.9937C6.46458 12.6485 6.92242 12.4545 7.39981 12.4545C7.87719 12.4545 8.33503 12.6485 8.6726 12.9937C9.01016 13.339 9.19981 13.8072 9.19981 14.2955C9.19981 14.4582 9.13659 14.6143 9.02407 14.7294C8.91155 14.8444 8.75893 14.9091 8.5998 14.9091C8.44068 14.9091 8.28806 14.8444 8.17554 14.7294C8.06302 14.6143 7.9998 14.4582 7.9998 14.2955C7.9998 14.1327 7.93659 13.9766 7.82407 13.8616C7.71155 13.7465 7.55893 13.6818 7.39981 13.6818C7.24067 13.6818 7.08806 13.7465 6.97554 13.8616C6.86302 13.9766 6.7998 14.1327 6.7998 14.2955V14.7643C6.79981 14.8781 6.83079 14.9898 6.88928 15.0866C6.94777 15.1835 7.03147 15.2619 7.131 15.3129L8.20501 15.8615C8.50402 16.0144 8.75547 16.2495 8.93118 16.5404C9.10689 16.8313 9.19991 17.1665 9.19981 17.5085V17.9773C9.19981 18.4655 9.01016 18.9338 8.6726 19.279C8.33503 19.6242 7.87719 19.8182 7.39981 19.8182C6.92242 19.8182 6.46458 19.6242 6.12701 19.279C5.78945 18.9338 5.5998 18.4655 5.5998 17.9773C5.5998 17.8145 5.66302 17.6584 5.77554 17.5434C5.88806 17.4283 6.04068 17.3636 6.1998 17.3636C6.35893 17.3636 6.51155 17.4283 6.62407 17.5434C6.73659 17.6584 6.7998 17.8145 6.7998 17.9773C6.7998 18.14 6.86302 18.2961 6.97554 18.4112C7.08806 18.5263 7.24067 18.5909 7.39981 18.5909C7.55893 18.5909 7.71155 18.5263 7.82407 18.4112C7.93659 18.2961 7.9998 18.14 7.9998 17.9773V17.5085C7.9998 17.3946 7.96882 17.283 7.91033 17.1861C7.85184 17.0892 7.76814 17.0109 7.6686 16.9599L6.5946 16.4113C6.29559 16.2583 6.04414 16.0232 5.86843 15.7323C5.69272 15.4414 5.5997 15.1062 5.5998 14.7643V14.2955Z" fill="white"/>
</svg>
