<svg width="21" height="23" viewBox="0 0 21 23" fill="none" xmlns="http://www.w3.org/2000/svg">
<path d="M10.128 22.9551C8.31322 22.9551 6.69404 21.288 5.67255 18.4318C5.59648 18.2095 5.70515 17.9539 5.93336 17.8872C6.1507 17.7983 6.38977 17.9205 6.46584 18.1428C7.34606 20.6212 8.7153 22.0993 10.128 22.0993C11.1495 22.0993 12.1601 21.3436 12.9751 19.9655C13.0342 19.8713 13.1269 19.8044 13.2335 19.7792C13.3401 19.7539 13.4521 19.7722 13.5456 19.8302C13.6392 19.8882 13.7069 19.9813 13.7343 20.0896C13.7617 20.1979 13.7467 20.3129 13.6924 20.41C12.7143 22.0549 11.4538 22.9551 10.128 22.9551ZM14.377 18.1984C14.3362 18.1974 14.2959 18.1899 14.2574 18.1761C14.0292 18.0983 13.9314 17.8649 13.9749 17.6315C14.4748 16.0756 14.7139 14.264 14.7139 12.3969C14.7139 8.11803 13.3555 4.32818 11.4212 3.10564C11.1495 3.50575 10.6713 3.81694 10.128 3.81694C9.30211 3.81694 8.61749 3.12787 8.61749 2.2721C8.61749 1.41633 9.30211 0.727264 10.128 0.727264C10.9648 0.727264 11.6494 1.40521 11.6602 2.24987C13.964 3.50575 15.5615 7.62901 15.5615 12.3969C15.5615 14.3418 15.2898 16.2423 14.7791 17.8983C14.7247 18.0761 14.5617 18.1984 14.377 18.1984ZM10.128 1.58304C9.75852 1.58304 9.45425 1.89423 9.45425 2.2721C9.45425 2.64997 9.76939 2.95005 10.128 2.95005C10.5083 2.95005 10.8235 2.64997 10.8235 2.2721C10.8235 1.89423 10.5083 1.58304 10.128 1.58304ZM1.52137 19.1097C0.684618 19.1097 0 18.4095 0 17.5649C0 17.0203 0.282541 16.5313 0.706352 16.2534C0.554214 13.575 3.26009 10.0741 7.41126 7.64013C9.13911 6.63987 10.943 5.91747 12.6491 5.55071C12.8447 5.49514 13.0947 5.63962 13.1381 5.87301C13.1925 6.10641 13.0512 6.3398 12.8447 6.38425C11.2147 6.7399 9.48685 7.42896 7.84594 8.38476C4.10771 10.5742 1.54311 13.7083 1.54311 16.02C2.369 16.0311 3.06448 16.7202 3.06448 17.5649C3.06448 18.4206 2.35813 19.1097 1.52137 19.1097ZM1.52137 16.8758C1.1519 16.8758 0.847622 17.187 0.847622 17.5649C0.847622 17.9539 1.1519 18.2539 1.52137 18.2539C1.89085 18.2539 2.20599 17.9539 2.20599 17.5649C2.20599 17.187 1.89085 16.8758 1.52137 16.8758ZM17.1915 13.4416C17.1154 13.4416 17.0176 13.4083 16.9416 13.3416C16.8573 13.2659 16.8056 13.1594 16.7974 13.045C16.7893 12.9307 16.8255 12.8176 16.8981 12.7303C18.5716 10.7298 19.1476 8.79598 18.4304 7.55122C17.9196 6.65099 16.7568 6.15086 15.1594 6.12863C14.9203 6.12863 14.7356 5.92858 14.7465 5.69519C14.7465 5.4618 14.9421 5.28398 15.1703 5.27286C17.072 5.29509 18.4956 5.95081 19.1584 7.11777C20.0713 8.71818 19.4736 10.9632 17.5393 13.286C17.4523 13.386 17.3328 13.4416 17.1915 13.4416ZM15.0181 19.5098C12.8447 19.5098 10.0628 18.6874 7.41126 17.1425C5.72688 16.1534 4.22724 14.942 3.06448 13.6528C2.98854 13.5699 2.94627 13.4607 2.94627 13.3471C2.94627 13.2336 2.98854 13.1243 3.06448 13.0415C3.26009 12.8859 3.52089 12.897 3.6839 13.0748C4.78146 14.2974 6.2159 15.4532 7.83507 16.3979C11.432 18.5096 15.3115 19.2097 17.3545 18.1984C17.2676 18.0094 17.1915 17.7871 17.1915 17.5649C17.1915 16.7091 17.8979 16.02 18.7346 16.02C19.5714 16.02 20.256 16.7091 20.256 17.5649C20.2551 17.8429 20.1811 18.1156 20.0417 18.3544C19.9024 18.5932 19.7029 18.7893 19.4641 18.9223C19.2253 19.0552 18.9559 19.12 18.6842 19.11C18.4125 19.0999 18.1484 19.0154 17.9196 18.8652C17.1589 19.2986 16.17 19.5098 15.0181 19.5098ZM18.2782 18.0983C18.4195 18.1872 18.5716 18.2539 18.7346 18.2539C18.9133 18.2539 19.0847 18.1813 19.211 18.0521C19.3374 17.9229 19.4084 17.7476 19.4084 17.5649C19.4084 17.3821 19.3374 17.2068 19.211 17.0776C19.0847 16.9484 18.9133 16.8758 18.7346 16.8758C18.3543 16.8758 18.0609 17.187 18.0609 17.5649C18.0609 17.7205 18.1152 17.8649 18.2021 17.9872C18.2456 18.0094 18.2782 18.0539 18.2782 18.0983ZM1.93432 11.8412C1.79305 11.8412 1.65178 11.7523 1.57571 11.6189C0.597682 9.89626 0.434678 8.29585 1.10843 7.10666C2.02125 5.50625 4.23811 4.9061 7.20479 5.45068C7.41126 5.49514 7.58513 5.72853 7.54167 5.95081C7.50906 6.1842 7.29173 6.3398 7.06352 6.28423C4.49892 5.82856 2.52113 6.28423 1.83651 7.5401C1.3149 8.45145 1.47791 9.74066 2.30379 11.1855C2.41246 11.3966 2.34726 11.6523 2.14079 11.7745C2.07559 11.8079 2.01039 11.8412 1.93432 11.8412ZM10.3562 13.3971C10.0968 13.4561 9.82515 13.4072 9.60098 13.2614C9.37681 13.1155 9.21848 12.8845 9.16084 12.6192C9.1032 12.3539 9.15096 12.076 9.29362 11.8468C9.43627 11.6175 9.66214 11.4556 9.92153 11.3966C10.4649 11.2855 11.0082 11.63 11.1169 12.1857C11.2147 12.7303 10.8887 13.2749 10.3562 13.3971Z" fill="white"/>
</svg>
