<svg width="156" height="54" viewBox="0 0 156 54" fill="none" xmlns="http://www.w3.org/2000/svg">
<path d="M11.31 19L10.166 14.632H5.2L4.082 19H0.13L5.044 0.852H10.556L15.47 19H11.31ZM7.8 4.622H7.592L5.824 11.486H9.568L7.8 4.622ZM17.9818 19V0.852H21.9078V15.802H29.7078V19H17.9818ZM33.2597 19V0.852H44.8557V4.05H37.1597V8.21H44.5957V11.408H37.1597V15.802H44.8557V19H33.2597ZM54.0495 11.434L52.4375 13.696V19H48.5375V0.852H52.4375V8.444H52.6455L54.6215 5.428L57.8195 0.852H62.1875L56.7535 8.522L62.4475 19H58.0535L54.0495 11.434ZM69.8734 19.312C68.348 19.312 67.022 19.0607 65.8954 18.558C64.7687 18.0553 63.8587 17.3707 63.1654 16.504L65.4274 14.008C66.086 14.736 66.8054 15.2733 67.5854 15.62C68.3827 15.9667 69.1887 16.14 70.0034 16.14C70.9394 16.14 71.65 15.932 72.1354 15.516C72.6207 15.1 72.8634 14.502 72.8634 13.722C72.8634 13.0807 72.6727 12.5953 72.2914 12.266C71.9274 11.9367 71.3034 11.7027 70.4194 11.564L68.5214 11.252C66.892 10.9747 65.7134 10.3767 64.9854 9.458C64.2574 8.522 63.8934 7.38667 63.8934 6.052C63.8934 4.30133 64.4654 2.94933 65.6094 1.996C66.7534 1.02533 68.3567 0.539999 70.4194 0.539999C71.8234 0.539999 73.0454 0.756665 74.0854 1.19C75.1254 1.62333 75.966 2.21267 76.6074 2.958L74.3974 5.428C73.912 4.89067 73.34 4.47467 72.6814 4.18C72.0227 3.868 71.2774 3.712 70.4454 3.712C68.6947 3.712 67.8194 4.43133 67.8194 5.87C67.8194 6.494 68.01 6.962 68.3914 7.274C68.79 7.586 69.4314 7.82 70.3154 7.976L72.2134 8.314C73.6867 8.574 74.822 9.12867 75.6194 9.978C76.4167 10.8273 76.8154 11.9713 76.8154 13.41C76.8154 14.2593 76.668 15.048 76.3734 15.776C76.0787 16.4867 75.6367 17.1107 75.0474 17.648C74.458 18.168 73.73 18.5753 72.8634 18.87C72.014 19.1647 71.0174 19.312 69.8734 19.312ZM89.2592 19L88.1152 14.632H83.1492L82.0312 19H78.0792L82.9932 0.852H88.5052L93.4192 19H89.2592ZM85.7492 4.622H85.5412L83.7732 11.486H87.5172L85.7492 4.622ZM98.7391 6.936H98.4531V19H95.1251V0.852H99.8051L103.939 12.916H104.225V0.852H107.553V19H102.873L98.7391 6.936ZM110.793 0.852H116.643C119.087 0.852 120.898 1.632 122.077 3.192C123.256 4.752 123.845 6.99667 123.845 9.926C123.845 12.8553 123.256 15.1 122.077 16.66C120.898 18.22 119.087 19 116.643 19H110.793V0.852ZM116.383 15.932C117.544 15.932 118.394 15.5593 118.931 14.814C119.468 14.0687 119.737 12.9853 119.737 11.564V8.262C119.737 6.858 119.468 5.78333 118.931 5.038C118.394 4.29267 117.544 3.92 116.383 3.92H114.641V15.932H116.383ZM130.543 19H126.695V0.852H133.715C134.599 0.852 135.387 0.990666 136.081 1.268C136.774 1.528 137.355 1.90933 137.823 2.412C138.308 2.91467 138.672 3.52133 138.915 4.232C139.157 4.94267 139.279 5.74 139.279 6.624C139.279 7.90667 139.001 9.00733 138.447 9.926C137.892 10.8447 137.103 11.4513 136.081 11.746L139.643 19H135.379L132.337 12.266H130.543V19ZM132.779 9.25C133.697 9.25 134.33 9.07667 134.677 8.73C135.041 8.38333 135.223 7.81133 135.223 7.014V6.234C135.223 5.43667 135.041 4.86467 134.677 4.518C134.33 4.17133 133.697 3.998 132.779 3.998H130.543V9.25H132.779ZM1.95 53V50.114H5.85V37.738H1.95V34.852H13.65V37.738H9.75V50.114H13.65V53H1.95ZM20.6338 53L15.8238 34.852H20.1658L22.2978 44.082L23.3638 49.308H23.5718L24.6638 44.082L26.8218 34.852H30.9558L26.1458 53H20.6338ZM42.4897 53L41.3457 48.632H36.3797L35.2617 53H31.3097L36.2237 34.852H41.7357L46.6497 53H42.4897ZM38.9797 38.622H38.7717L37.0037 45.486H40.7477L38.9797 38.622ZM54.0495 45.434L52.4375 47.696V53H48.5375V34.852H52.4375V42.444H52.6455L54.6215 39.428L57.8195 34.852H62.1875L56.7535 42.522L62.4475 53H58.0535L54.0495 45.434ZM72.4474 45.408H67.8714V53H63.9454V34.852H67.8714V42.21H72.4474V34.852H76.3734V53H72.4474V45.408ZM83.1492 40.936H82.8632V53H79.5352V34.852H84.2152L88.3492 46.916H88.6352V34.852H91.9632V53H87.2832L83.1492 40.936ZM95.6191 53V34.852H107.215V38.05H99.5191V42.21H106.955V45.408H99.5191V49.802H107.215V53H95.6191ZM114.329 40.936H114.043V53H110.715V34.852H115.395L119.529 46.916H119.815V34.852H123.143V53H118.463L114.329 40.936ZM131.999 45.434L130.387 47.696V53H126.487V34.852H130.387V42.444H130.595L132.571 39.428L135.769 34.852H140.137L134.703 42.522L140.397 53H136.003L131.999 45.434ZM148.109 53.312C145.682 53.312 143.888 52.4887 142.727 50.842C141.583 49.1953 141.011 46.89 141.011 43.926C141.011 40.962 141.583 38.6567 142.727 37.01C143.888 35.3633 145.682 34.54 148.109 34.54C150.535 34.54 152.321 35.3633 153.465 37.01C154.626 38.6567 155.207 40.962 155.207 43.926C155.207 46.89 154.626 49.1953 153.465 50.842C152.321 52.4887 150.535 53.312 148.109 53.312ZM148.109 50.166C149.218 50.166 149.981 49.7587 150.397 48.944C150.83 48.112 151.047 46.9593 151.047 45.486V42.34C151.047 40.884 150.83 39.7487 150.397 38.934C149.981 38.102 149.218 37.686 148.109 37.686C146.999 37.686 146.228 38.102 145.795 38.934C145.379 39.7487 145.171 40.884 145.171 42.34V45.512C145.171 46.968 145.379 48.112 145.795 48.944C146.228 49.7587 146.999 50.166 148.109 50.166Z" fill="white"/>
</svg>
