<svg width="248" height="68" viewBox="0 0 248 68" fill="none" xmlns="http://www.w3.org/2000/svg">
<line x1="78" y1="7" x2="78" y2="62" stroke="white" stroke-width="2"/>
<path d="M103.31 27L102.166 22.632H97.2L96.082 27H92.13L97.044 8.852H102.556L107.47 27H103.31ZM99.8 12.622H99.592L97.824 19.486H101.568L99.8 12.622ZM109.982 27V8.852H113.908V23.802H121.708V27H109.982ZM125.26 27V8.852H136.856V12.05H129.16V16.21H136.596V19.408H129.16V23.802H136.856V27H125.26ZM146.05 19.434L144.438 21.696V27H140.538V8.852H144.438V16.444H144.646L146.622 13.428L149.82 8.852H154.188L148.754 16.522L154.448 27H150.054L146.05 19.434ZM161.873 27.312C160.348 27.312 159.022 27.0607 157.895 26.558C156.769 26.0553 155.859 25.3707 155.165 24.504L157.427 22.008C158.086 22.736 158.805 23.2733 159.585 23.62C160.383 23.9667 161.189 24.14 162.003 24.14C162.939 24.14 163.65 23.932 164.135 23.516C164.621 23.1 164.863 22.502 164.863 21.722C164.863 21.0807 164.673 20.5953 164.291 20.266C163.927 19.9367 163.303 19.7027 162.419 19.564L160.521 19.252C158.892 18.9747 157.713 18.3767 156.985 17.458C156.257 16.522 155.893 15.3867 155.893 14.052C155.893 12.3013 156.465 10.9493 157.609 9.996C158.753 9.02533 160.357 8.54 162.419 8.54C163.823 8.54 165.045 8.75667 166.085 9.19C167.125 9.62333 167.966 10.2127 168.607 10.958L166.397 13.428C165.912 12.8907 165.34 12.4747 164.681 12.18C164.023 11.868 163.277 11.712 162.445 11.712C160.695 11.712 159.819 12.4313 159.819 13.87C159.819 14.494 160.01 14.962 160.391 15.274C160.79 15.586 161.431 15.82 162.315 15.976L164.213 16.314C165.687 16.574 166.822 17.1287 167.619 17.978C168.417 18.8273 168.815 19.9713 168.815 21.41C168.815 22.2593 168.668 23.048 168.373 23.776C168.079 24.4867 167.637 25.1107 167.047 25.648C166.458 26.168 165.73 26.5753 164.863 26.87C164.014 27.1647 163.017 27.312 161.873 27.312ZM181.259 27L180.115 22.632H175.149L174.031 27H170.079L174.993 8.852H180.505L185.419 27H181.259ZM177.749 12.622H177.541L175.773 19.486H179.517L177.749 12.622ZM190.739 14.936H190.453V27H187.125V8.852H191.805L195.939 20.916H196.225V8.852H199.553V27H194.873L190.739 14.936ZM202.793 8.852H208.643C211.087 8.852 212.898 9.632 214.077 11.192C215.256 12.752 215.845 14.9967 215.845 17.926C215.845 20.8553 215.256 23.1 214.077 24.66C212.898 26.22 211.087 27 208.643 27H202.793V8.852ZM208.383 23.932C209.544 23.932 210.394 23.5593 210.931 22.814C211.468 22.0687 211.737 20.9853 211.737 19.564V16.262C211.737 14.858 211.468 13.7833 210.931 13.038C210.394 12.2927 209.544 11.92 208.383 11.92H206.641V23.932H208.383ZM222.543 27H218.695V8.852H225.715C226.599 8.852 227.387 8.99067 228.081 9.268C228.774 9.528 229.355 9.90933 229.823 10.412C230.308 10.9147 230.672 11.5213 230.915 12.232C231.157 12.9427 231.279 13.74 231.279 14.624C231.279 15.9067 231.001 17.0073 230.447 17.926C229.892 18.8447 229.103 19.4513 228.081 19.746L231.643 27H227.379L224.337 20.266H222.543V27ZM224.779 17.25C225.697 17.25 226.33 17.0767 226.677 16.73C227.041 16.3833 227.223 15.8113 227.223 15.014V14.234C227.223 13.4367 227.041 12.8647 226.677 12.518C226.33 12.1713 225.697 11.998 224.779 11.998H222.543V17.25H224.779ZM93.95 61V58.114H97.85V45.738H93.95V42.852H105.65V45.738H101.75V58.114H105.65V61H93.95ZM112.634 61L107.824 42.852H112.166L114.298 52.082L115.364 57.308H115.572L116.664 52.082L118.822 42.852H122.956L118.146 61H112.634ZM134.49 61L133.346 56.632H128.38L127.262 61H123.31L128.224 42.852H133.736L138.65 61H134.49ZM130.98 46.622H130.772L129.004 53.486H132.748L130.98 46.622ZM146.05 53.434L144.438 55.696V61H140.538V42.852H144.438V50.444H144.646L146.622 47.428L149.82 42.852H154.188L148.754 50.522L154.448 61H150.054L146.05 53.434ZM164.447 53.408H159.871V61H155.945V42.852H159.871V50.21H164.447V42.852H168.373V61H164.447V53.408ZM175.149 48.936H174.863V61H171.535V42.852H176.215L180.349 54.916H180.635V42.852H183.963V61H179.283L175.149 48.936ZM187.619 61V42.852H199.215V46.05H191.519V50.21H198.955V53.408H191.519V57.802H199.215V61H187.619ZM206.329 48.936H206.043V61H202.715V42.852H207.395L211.529 54.916H211.815V42.852H215.143V61H210.463L206.329 48.936ZM223.999 53.434L222.387 55.696V61H218.487V42.852H222.387V50.444H222.595L224.571 47.428L227.769 42.852H232.137L226.703 50.522L232.397 61H228.003L223.999 53.434ZM240.109 61.312C237.682 61.312 235.888 60.4887 234.727 58.842C233.583 57.1953 233.011 54.89 233.011 51.926C233.011 48.962 233.583 46.6567 234.727 45.01C235.888 43.3633 237.682 42.54 240.109 42.54C242.535 42.54 244.321 43.3633 245.465 45.01C246.626 46.6567 247.207 48.962 247.207 51.926C247.207 54.89 246.626 57.1953 245.465 58.842C244.321 60.4887 242.535 61.312 240.109 61.312ZM240.109 58.166C241.218 58.166 241.981 57.7587 242.397 56.944C242.83 56.112 243.047 54.9593 243.047 53.486V50.34C243.047 48.884 242.83 47.7487 242.397 46.934C241.981 46.102 241.218 45.686 240.109 45.686C238.999 45.686 238.228 46.102 237.795 46.934C237.379 47.7487 237.171 48.884 237.171 50.34V53.512C237.171 54.968 237.379 56.112 237.795 56.944C238.228 57.7587 238.999 58.166 240.109 58.166Z" fill="white"/>
<path d="M6.48815 18.9047L33.5 3.3094L60.5118 18.9047V50.0953L33.5 65.6906L6.48815 50.0953V18.9047Z" stroke="white" stroke-width="4"/>
<path d="M13.55 36.92V32.78L26.45 25.88V30.02L17.54 34.73V34.97L26.45 39.68V43.82L13.55 36.92ZM26.6783 48.14L36.3083 21.2H40.2983L30.6683 48.14H26.6783ZM40.5266 39.68L49.4366 34.97V34.73L40.5266 30.02V25.88L53.4266 32.78V36.92L40.5266 43.82V39.68Z" fill="white"/>
</svg>
